Coordinates
version=1
nRows=11
nColumns=40
inDegrees=yes

Units are S.I. units (second, meters, Newtons, ...)
Angles are in degrees.

endheader
time	pelvis_tilt	pelvis_list	pelvis_rotation	pelvis_tx	pelvis_ty	pelvis_tz	hip_flexion_r	hip_adduction_r	hip_rotation_r	knee_angle_r	knee_angle_r_beta	ankle_angle_r	subtalar_angle_r	mtp_angle_r	hip_flexion_l	hip_adduction_l	hip_rotation_l	knee_angle_l	knee_angle_l_beta	ankle_angle_l	subtalar_angle_l	mtp_angle_l	lumbar_extension	lumbar_bending	lumbar_rotation	arm_flex_r	arm_add_r	arm_rot_r	elbow_flex_r	pro_sup_r	wrist_flex_r	wrist_dev_r	arm_flex_l	arm_add_l	arm_rot_l	elbow_flex_l	pro_sup_l	wrist_flex_l	wrist_dev_l
     20.17750000	     -5.58905481	     -3.18923546	      3.39156760	      1.05181533	      0.91964052	      0.47057167	     24.90277540	     -3.04284004	    -16.95987465	     23.21463821	     23.21463821	      5.33164136	     -1.29889269	     -0.85552588	      7.72226928	    -10.25596303	     -3.62097734	     40.37074986	     40.37074986	     10.99999743	    -17.74971991	     -2.32879900	    -13.39489991	      3.35550624	      3.36368338	     -7.99117832	    -11.15993640	     -4.23560257	     28.27647735	     46.26418125	      0.00000000	      0.00000000	     12.10428860	    -17.05714255	     -5.31666493	    104.60248956	     48.66382524	      0.00000000	      0.00000000
     20.18914286	     -5.85904815	     -3.58662405	      3.52610900	      1.05131933	      0.92054176	      0.47343181	     24.35795166	     -2.37216132	    -17.22326310	     22.61216798	     22.61216798	      5.65561441	     -1.16479779	     -0.59375491	     10.46494648	    -10.90951350	     -2.37269830	     44.96352663	     44.96352663	     10.30635180	    -18.15568859	      0.83274208	    -13.31029684	      3.65622938	      3.49293660	     -6.75122580	    -11.35973825	     -3.81608636	     29.23932948	     46.19964111	      0.00000000	      0.00000000	     11.19780484	    -16.15605432	     -5.59592689	    101.76817612	     48.63004590	      0.00000000	      0.00000000
     20.20078571	     -6.13210216	     -4.08347702	      3.66215716	      1.05061715	      0.92114065	      0.47618775	     23.82710754	     -1.61494354	    -17.62271982	     21.98873714	     21.98873714	      5.89715725	     -0.97396114	     -0.56097830	     13.21688758	    -11.63214967	     -1.15837195	     49.19953299	     49.19953299	      8.75257490	    -18.56249385	      1.47032775	    -13.24718584	      4.00778065	      3.56489487	     -5.21116249	    -11.58266400	     -3.78631559	     30.01281467	     46.17742839	      0.00000000	      0.00000000	      9.95051580	    -15.61806904	     -5.16989013	    100.19789765	     48.56603558	      0.00000000	      0.00000000
     20.21242857	     -6.44157518	     -4.38782481	      3.77771448	      1.04966025	      0.92172932	      0.47862378	     23.36248725	     -1.03423036	    -17.74424541	     21.37007772	     21.37007772	      6.01865252	     -1.01322320	     -0.75314017	     16.21597945	    -11.73547958	      0.51612300	     53.59951391	     53.59951391	      9.64861998	    -18.43509611	      8.50193843	    -13.05824497	      4.23246394	      4.03673930	     -4.39230591	    -12.08555313	     -2.89561222	     32.24725913	     46.02059152	      0.00000000	      0.00000000	      9.69771134	    -14.79766362	     -4.75923962	     95.79013718	     48.46449500	      0.00000000	      0.00000000
     20.22407143	     -6.72517282	     -4.82292171	      3.93514019	      1.04853839	      0.92207143	      0.48098149	     22.92238573	     -0.34828241	    -17.98094844	     20.81943305	     20.81943305	      6.21040443	     -1.02489222	     -0.73326837	     18.96528401	    -12.06785141	      1.89638639	     57.10406648	     57.10406648	      8.36297522	    -18.57720229	      8.78043449	    -12.93917523	      4.51815747	      3.87696078	     -2.64455153	    -12.41529800	     -2.92525797	     33.22959778	     45.99529353	      0.00000000	      0.00000000	      8.50583843	    -14.40234558	     -4.55607634	     93.43041071	     48.39940555	      0.00000000	      0.00000000
     20.23571429	     -6.88120534	     -5.13145101	      4.04577451	      1.04731275	      0.92259072	      0.48313052	     22.41482938	      0.24167976	    -17.92411715	     20.37045190	     20.37045190	      6.32781880	     -1.33803220	     -0.83074652	     21.51835701	    -12.11277798	      3.24600168	     60.22246166	     60.22246166	      7.86590461	    -18.58892006	     10.42983495	    -12.90875306	      4.74830196	      4.05182061	     -1.16055801	    -12.91000428	     -2.65582847	     34.96259136	     45.91613008	      0.00000000	      0.00000000	      8.34514807	    -13.37231270	     -4.81462788	     88.41292726	     48.31847621	      0.00000000	      0.00000000
     20.24735714	     -7.06093274	     -5.48675650	      4.15229502	      1.04594862	      0.92283512	      0.48517424	     21.99445489	      0.81005075	    -18.09383010	     20.04589872	     20.04589872	      6.57570844	     -1.34249567	     -0.87622190	     24.04818513	    -12.21298081	      4.42216773	     62.83688664	     62.83688664	      7.17711841	    -18.56035323	     10.51653531	    -12.93148534	      4.92479572	      4.02925404	      0.75236110	    -13.32565091	     -2.73933782	     36.16071625	     45.88663817	      0.00000000	      0.00000000	      7.25329439	    -12.91586245	     -4.39276787	     86.31614354	     48.24056065	      0.00000000	      0.00000000
     20.25900000	     -7.22937291	     -5.71928433	      4.26935618	      1.04448632	      0.92317416	      0.48696584	     21.54762686	      1.28476795	    -17.99597459	     19.65748252	     19.65748252	      6.73855418	     -1.61472181	     -1.00821154	     26.51898459	    -12.08645926	      5.49542501	     64.99626143	     64.99626143	      7.21332893	    -18.43467640	     11.99429131	    -12.82214019	      5.06855461	      4.68524254	      1.45609019	    -14.09496313	     -2.37859155	     39.50688771	     45.73379680	      0.00000000	      0.00000000	      7.99443695	    -11.81974614	     -4.17424788	     79.54529915	     48.09731906	      0.00000000	      0.00000000
     20.27064286	     -7.24473524	     -5.90375715	      4.39543875	      1.04305084	      0.92360716	      0.48863656	     21.01409327	      1.67259217	    -17.99060760	     19.45990910	     19.45990910	      7.02202274	     -1.83997528	     -1.01448096	     28.68207001	    -12.00689542	      6.27488403	     66.51965156	     66.51965156	      7.08151816	    -18.37787464	     12.07583133	    -12.95703935	      5.11996741	      4.59881626	      3.19593178	    -14.54811226	     -2.47013820	     42.00433998	     45.65251188	      0.00000000	      0.00000000	      7.59739594	    -11.38715261	     -3.93041442	     75.09733261	     47.99571717	      0.00000000	      0.00000000
     20.28228571	     -7.28824554	     -6.03389454	      4.53872445	      1.04157950	      0.92397458	      0.49015710	     20.48220590	      1.99726818	    -17.95891849	     19.21128559	     19.21128559	      7.37032525	     -1.94461772	     -0.99897277	     30.80520977	    -11.92105397	      6.82336144	     67.50008610	     67.50008610	      7.00067337	    -18.39870741	     12.02739409	    -12.98680459	      5.07157942	      4.14368830	      5.24242601	    -14.76046413	     -2.62915461	     44.28072248	     45.58672258	      0.00000000	      0.00000000	      6.91812938	    -11.17122594	     -3.77626671	     71.11761961	     47.90794992	      0.00000000	      0.00000000
     20.29392857	     -7.32482450	     -6.22546198	      4.73607571	      1.04000387	      0.92427739	      0.49150068	     19.97238511	      2.35003549	    -18.03135474	     19.00026972	     19.00026972	      7.70580887	     -2.07206094	     -0.96841671	     32.88133060	    -11.94430347	      7.23255307	     67.96317705	     67.96317705	      7.09138103	    -18.46662688	     12.02484937	    -13.07090630	      5.12225903	      3.70289953	      7.41647171	    -14.91035675	     -2.78171002	     46.57023862	     45.52158607	      0.00000000	      0.00000000	      6.17652279	    -10.91935042	     -3.70266909	     67.23355635	     47.82859348	      0.00000000	      0.00000000
